<svg xmlns="http://www.w3.org/2000/svg" style="display: none;">
  <!-- Help/Question Mark Icon -->
  <symbol id="icon-help" viewBox="0 0 24 24">
    <path d="M9.09 9a3 3 0 0 1 5.83 1c0 2-3 3-3 3" stroke="currentColor" stroke-width="2" stroke-linecap="round" stroke-linejoin="round" fill="none"/>
    <line x1="12" y1="17" x2="12.01" y2="17" stroke="currentColor" stroke-width="2" stroke-linecap="round" stroke-linejoin="round"/>
  </symbol>

  <!-- Sun Icon (Light Mode) -->
  <symbol id="icon-sun" viewBox="0 0 24 24">
    <circle cx="12" cy="12" r="5" stroke="currentColor" stroke-width="2" stroke-linecap="round" stroke-linejoin="round" fill="none"/>
    <line x1="12" y1="1" x2="12" y2="3" stroke="currentColor" stroke-width="2" stroke-linecap="round" stroke-linejoin="round"/>
    <line x1="12" y1="21" x2="12" y2="23" stroke="currentColor" stroke-width="2" stroke-linecap="round" stroke-linejoin="round"/>
    <line x1="4.22" y1="4.22" x2="5.64" y2="5.64" stroke="currentColor" stroke-width="2" stroke-linecap="round" stroke-linejoin="round"/>
    <line x1="18.36" y1="18.36" x2="19.78" y2="19.78" stroke="currentColor" stroke-width="2" stroke-linecap="round" stroke-linejoin="round"/>
    <line x1="1" y1="12" x2="3" y2="12" stroke="currentColor" stroke-width="2" stroke-linecap="round" stroke-linejoin="round"/>
    <line x1="21" y1="12" x2="23" y2="12" stroke="currentColor" stroke-width="2" stroke-linecap="round" stroke-linejoin="round"/>
    <line x1="4.22" y1="19.78" x2="5.64" y2="18.36" stroke="currentColor" stroke-width="2" stroke-linecap="round" stroke-linejoin="round"/>
    <line x1="18.36" y1="5.64" x2="19.78" y2="4.22" stroke="currentColor" stroke-width="2" stroke-linecap="round" stroke-linejoin="round"/>
  </symbol>

  <!-- Moon Icon (Dark Mode) -->
  <symbol id="icon-moon" viewBox="0 0 24 24">
    <path d="M21 12.79A9 9 0 1 1 11.21 3 7 7 0 0 0 21 12.79z" stroke="currentColor" stroke-width="2" stroke-linecap="round" stroke-linejoin="round" fill="none"/>
  </symbol>

  <!-- Close/X Icon -->
  <symbol id="icon-close" viewBox="0 0 24 24">
    <line x1="18" y1="6" x2="6" y2="18" stroke="currentColor" stroke-width="2" stroke-linecap="round" stroke-linejoin="round"/>
    <line x1="6" y1="6" x2="18" y2="18" stroke="currentColor" stroke-width="2" stroke-linecap="round" stroke-linejoin="round"/>
  </symbol>

  <!-- Closed Lock Icon (Privacy) -->
  <symbol id="icon-lock-closed" viewBox="0 0 24 24">
    <rect x="6" y="10" width="12" height="11" rx="2" stroke="currentColor" stroke-width="2" fill="none"/>
    <path d="M8 10V7C8 4.79086 9.79086 3 12 3C14.2091 3 16 4.79086 16 7V10" stroke="currentColor" stroke-width="2" stroke-linecap="round"/>
  </symbol>

  <!-- Open Lock Icon (Public Key) -->
  <symbol id="icon-lock-open" viewBox="0 0 24 24">
    <rect x="6" y="10" width="12" height="11" rx="2" stroke="currentColor" stroke-width="2" fill="none"/>
    <path d="M8 10V6C8 3.79086 9.79086 2 12 2C14.2091 2 16 3.79086 16 6L16 4" stroke="currentColor" stroke-width="2" stroke-linecap="round" fill="none"/>
  </symbol>

  <!-- Key Icon (Private Key) -->
  <symbol id="icon-key" viewBox="0 0 24 24">
    <path d="M14 9.94953C14.6353 10.5978 15.5207 11 16.5 11C18.433 11 20 9.433 20 7.5C20 5.567 18.433 4 16.5 4C14.567 4 13 5.567 13 7.5C13 8.45372 13.3814 9.31834 14 9.94953ZM14 9.94953L8.96844 14.9811M3.94953 16.0001L5.24242 17.2929C5.63295 17.6835 6.26611 17.6835 6.65664 17.2929L8.96844 14.9811M8.96844 14.9811L7 13.0127" stroke="currentColor" stroke-width="2" stroke-linecap="round" stroke-linejoin="round" fill="none"/>
  </symbol>

  <!-- Mailbox Icon (Bitcoin Address) -->
  <symbol id="icon-mailbox" viewBox="0 0 32 32">
    <path d="M16,25H2v-8c0-3.9,3.1-7,7-7h0c3.9,0,7,3.1,7,7V25z" stroke="currentColor" stroke-width="2" stroke-linecap="round" stroke-linejoin="round" fill="none"/>
    <path d="M23,10L23,10c3.9,0,7,3.1,7,7v8H16" stroke="currentColor" stroke-width="2" stroke-linecap="round" stroke-linejoin="round" fill="none"/>
    <line x1="9" y1="10" x2="23" y2="10" stroke="currentColor" stroke-width="2" stroke-linecap="round" stroke-linejoin="round"/>
    <rect x="13" y="25" width="6" height="6" stroke="currentColor" stroke-width="2" stroke-linecap="round" stroke-linejoin="round" fill="none"/>
    <polyline points="22,18 22,4.9 22,1 30,1 30,5 24,5" stroke="currentColor" stroke-width="2" stroke-linecap="round" stroke-linejoin="round" fill="none"/>
  </symbol>

  <!-- Warning/Alert Icon -->
  <symbol id="icon-warning" viewBox="0 0 24 24">
    <path d="M12 2L2 20h20L12 2z" stroke="currentColor" stroke-width="2" stroke-linejoin="round" fill="none"/>
    <line x1="12" y1="9" x2="12" y2="13" stroke="currentColor" stroke-width="2" stroke-linecap="round"/>
    <circle cx="12" cy="16" r="1" fill="currentColor"/>
  </symbol>

  <!-- Lightbulb Icon (Learn More) -->
  <symbol id="icon-lightbulb" viewBox="0 0 24 24">
    <path d="M9 21h6" stroke="currentColor" stroke-width="2" stroke-linecap="round" stroke-linejoin="round" fill="none"/>
    <path d="M12 17v4" stroke="currentColor" stroke-width="2" stroke-linecap="round" stroke-linejoin="round" fill="none"/>
    <path d="M12 3C8.686 3 6 5.686 6 9c0 2.25 1.5 4.5 3 6v2h6v-2c1.5-1.5 3-3.75 3-6 0-3.314-2.686-6-6-6z" stroke="currentColor" stroke-width="2" stroke-linecap="round" stroke-linejoin="round" fill="none"/>
  </symbol>

  <!-- UK Flag -->
  <symbol id="flag-uk" viewBox="0 0 32 32">
    <defs>
      <clipPath id="uk-clip">
        <circle cx="16" cy="16" r="16"/>
      </clipPath>
    </defs>
    <g clip-path="url(#uk-clip)">
      <rect width="32" height="32" fill="#012169"/>
      <path d="M 0 0 L 32 32 M 32 0 L 0 32" stroke="#FFF" stroke-width="6.4"/>
      <path d="M 0 0 L 32 32 M 32 0 L 0 32" stroke="#C8102E" stroke-width="3.84"/>
      <path d="M 16 0 V 32 M 0 16 H 32" stroke="#FFF" stroke-width="10.67"/>
      <path d="M 16 0 V 32 M 0 16 H 32" stroke="#C8102E" stroke-width="6.4"/>
    </g>
  </symbol>

  <!-- Spanish Flag -->
  <symbol id="flag-es" viewBox="0 0 32 32">
    <defs>
      <clipPath id="es-clip">
        <circle cx="16" cy="16" r="16"/>
      </clipPath>
    </defs>
    <g clip-path="url(#es-clip)">
      <rect width="32" height="8" fill="#AA151B"/>
      <rect y="8" width="32" height="16" fill="#F1BF00"/>
      <rect y="24" width="32" height="8" fill="#AA151B"/>
    </g>
  </symbol>

  <!-- French Flag -->
  <symbol id="flag-fr" viewBox="0 0 32 32">
    <defs>
      <clipPath id="fr-clip">
        <circle cx="16" cy="16" r="16"/>
      </clipPath>
    </defs>
    <g clip-path="url(#fr-clip)">
      <rect width="10.67" height="32" fill="#002395"/>
      <rect x="10.67" width="10.67" height="32" fill="#FFF"/>
      <rect x="21.33" width="10.67" height="32" fill="#ED2939"/>
    </g>
  </symbol>

  <!-- Italian Flag -->
  <symbol id="flag-it" viewBox="0 0 32 32">
    <defs>
      <clipPath id="it-clip">
        <circle cx="16" cy="16" r="16"/>
      </clipPath>
    </defs>
    <g clip-path="url(#it-clip)">
      <rect width="10.67" height="32" fill="#009246"/>
      <rect x="10.67" width="10.67" height="32" fill="#FFF"/>
      <rect x="21.33" width="10.67" height="32" fill="#CE2B37"/>
    </g>
  </symbol>

  <!-- Portuguese Flag -->
  <symbol id="flag-pt" viewBox="0 0 32 32">
    <defs>
      <clipPath id="pt-clip">
        <circle cx="16" cy="16" r="16"/>
      </clipPath>
    </defs>
    <g clip-path="url(#pt-clip)">
      <rect width="12.8" height="32" fill="#006600"/>
      <rect x="12.8" width="19.2" height="32" fill="#FF0000"/>
      <circle cx="12.8" cy="16" r="5.33" fill="#FFFF00"/>
      <circle cx="12.8" cy="16" r="3.5" fill="#FF0000"/>
      <circle cx="12.8" cy="16" r="2.2" fill="#FFF"/>
    </g>
  </symbol>

  <!-- Czech Flag -->
  <symbol id="flag-cz" viewBox="0 0 32 32">
    <defs>
      <clipPath id="cz-clip">
        <circle cx="16" cy="16" r="16"/>
      </clipPath>
    </defs>
    <g clip-path="url(#cz-clip)">
      <rect width="32" height="16" fill="#FFF"/>
      <rect y="16" width="32" height="16" fill="#D7141A"/>
      <path d="M 0 0 L 16 16 L 0 32 Z" fill="#11457E"/>
    </g>
  </symbol>

  <!-- Japanese Flag -->
  <symbol id="flag-jp" viewBox="0 0 32 32">
    <defs>
      <clipPath id="jp-clip">
        <circle cx="16" cy="16" r="16"/>
      </clipPath>
    </defs>
    <g clip-path="url(#jp-clip)">
      <rect width="32" height="32" fill="#FFF"/>
      <circle cx="16" cy="16" r="6.4" fill="#BC002D"/>
    </g>
  </symbol>

  <!-- Korean Flag -->
  <symbol id="flag-kr" viewBox="0 0 32 32">
    <defs>
      <clipPath id="kr-clip">
        <circle cx="16" cy="16" r="16"/>
      </clipPath>
    </defs>
    <g clip-path="url(#kr-clip)">
      <rect width="32" height="32" fill="#FFF"/>
      <path d="M 10.67 16 A 5.33 5.33 0 0 1 21.33 16 Z" fill="#C60C30"/>
      <path d="M 21.33 16 A 5.33 5.33 0 0 1 10.67 16 Z" fill="#003478"/>
      <g stroke="#000" stroke-width="1.3" stroke-linecap="round">
        <line x1="21" y1="8" x2="25" y2="12"/>
        <line x1="22.2" y1="6.8" x2="26.2" y2="10.8"/>
        <line x1="19.8" y1="9.2" x2="23.8" y2="13.2"/>
        <line x1="21" y1="24" x2="25" y2="20"/>
        <line x1="22.2" y1="25.2" x2="26.2" y2="21.2"/>
        <line x1="19.8" y1="22.8" x2="23.8" y2="18.8"/>
        <line x1="11" y1="24" x2="7" y2="20"/>
        <line x1="9.8" y1="25.2" x2="5.8" y2="21.2"/>
        <line x1="12.2" y1="22.8" x2="8.2" y2="18.8"/>
        <line x1="11" y1="8" x2="7" y2="12"/>
        <line x1="9.8" y1="6.8" x2="5.8" y2="10.8"/>
        <line x1="12.2" y1="9.2" x2="8.2" y2="13.2"/>
      </g>
    </g>
  </symbol>

  <!-- Chinese Simplified Flag -->
  <symbol id="flag-cn" viewBox="0 0 32 32">
    <defs>
      <clipPath id="cn-clip">
        <circle cx="16" cy="16" r="16"/>
      </clipPath>
    </defs>
    <g clip-path="url(#cn-clip)">
      <rect width="32" height="32" fill="#DE2910"/>
      <polygon points="6.4,5.6 7.8,9.4 11.8,9.4 8.6,11.6 10,15.4 6.4,13.2 2.8,15.4 4.2,11.6 1,9.4 5,9.4" fill="#FFDE00"/>
    </g>
  </symbol>

  <!-- Chinese Traditional Flag -->
  <symbol id="flag-tw" viewBox="0 0 32 32">
    <defs>
      <clipPath id="tw-clip">
        <circle cx="16" cy="16" r="16"/>
      </clipPath>
    </defs>
    <g clip-path="url(#tw-clip)">
      <rect width="32" height="32" fill="#FE0000"/>
      <rect width="16" height="16" fill="#000095"/>
      <polygon points="8,3.2 9.2,6.8 13,6.8 10,9 11.2,12.6 8,10.4 4.8,12.6 6,9 3,6.8 6.8,6.8" fill="#FFF"/>
    </g>
  </symbol>
</svg>

